PathFileType	4	(X/Y/Z)	14_2_79_p0_0-215.trc
DataRate	CameraRate	NumFrames	NumMarkers	Units	OrigDataRate	OrigDataStartFrame	OrigNumFrames
60.0	60.0	5	27	m	60.0	189	216
Frame#	Time	RHip			RKnee			RAnkle			RBigToe			RSmallToe			RHeel			LHip			LKnee			LAnkle			LBigToe			LSmallToe			LHeel			Neck			Head			Nose			RShoulder			RElbow			RWrist			RThumb			RIndex			RPinky			LShoulder			LElbow			LWrist			LThumb			LIndex			LPinky			
		X1	Y1	Z1	X2	Y2	Z2	X3	Y3	Z3	X4	Y4	Z4	X5	Y5	Z5	X6	Y6	Z6	X7	Y7	Z7	X8	Y8	Z8	X9	Y9	Z9	X10	Y10	Z10	X11	Y11	Z11	X12	Y12	Z12	X13	Y13	Z13	X14	Y14	Z14	X15	Y15	Z15	X16	Y16	Z16	X17	Y17	Z17	X18	Y18	Z18	X19	Y19	Z19	X20	Y20	Z20	X21	Y21	Z21	X22	Y22	Z22	X23	Y23	Z23	X24	Y24	Z24	X25	Y25	Z25	X26	Y26	Z26	X27	Y27	Z27	
189	3.15	0.3115242091036138	0.6223748341859873	0.28602344443464234	0.3240456442034006	0.7940866905574506	0.7244072775482734	0.30981132125107	0.8920440934757456	1.1067219840994829	0.2629187049737381	0.7108572002341902	1.175629756049957	0.33355882354246	0.7267947131309963	1.1655970687721944	0.2851151780100306	0.9963582912244935	1.1648697006710211	0.09678506454781004	0.6340433554275255	0.29210185316688614	0.11329372712968519	0.7683149663449913	0.6938489281030448	0.11081005124168718	0.894633708762606	1.086749891940966	0.10534149222466142	0.7130892935161536	1.154816674958341	0.05535474774612036	0.7586063051308276	1.1588750012453057	0.13098295137023974	0.9877762968481342	1.1501470949206207	0.19803873056471905	0.4917643149669743	-0.19938916993883574	0.2111411153660221	0.37926795494996207	-0.4239913290053298	0.18239489130690142	0.3312724405906913	-0.29215508104178683	0.3393266216336402	0.5076308547692876	-0.11715296143455253	0.4085216120399145	0.6220851424616306	0.11436263087386839	0.3941791968884694	0.5072184637843256	0.33433227632958845	0.3337061616678218	0.5219429048929052	0.4276984219035948	0.35661642534944954	0.5687358986558221	0.47087546709440603	0.3682950571981296	0.610743894851317	0.47749746367097495	0.029415916445671944	0.5018671506957142	-0.1282246974302792	0.0016468182055158014	0.5505153707907982	0.1454124612026933	0.06544399381563355	0.48799143825922375	0.35018581051509023	0.13304692099945792	0.5536271836018148	0.44743275507319075	0.09649681986145137	0.5142178772569396	0.4619429731930326	0.06337802783599678	0.5352765539666641	0.46277824423159875
190	3.1666666666666665	0.31160955125998585	0.6230257396496108	0.2859800489440968	0.32412537113896417	0.7938350922500887	0.7282492915371426	0.31450464215212437	0.8930811117343167	1.106907756746129	0.263257302537275	0.6998223486481394	1.1719660737856352	0.3362927482781566	0.709004799483544	1.1590554314709272	0.2851099720220454	0.9962445435837095	1.1648965021774387	0.09676003718897844	0.6344501047268377	0.2920502903119725	0.10961548028260493	0.7836525447257328	0.6934959502479617	0.11083710715050533	0.89466446346861	1.0868191362657598	0.1044453561397101	0.7144195428995571	1.1589863680991408	0.05428728083469273	0.7600889509739387	1.1630617314993268	0.1298681778854289	0.9852516217537699	1.1455706804607806	0.19806110627568846	0.4918570394293468	-0.1993924457726475	0.211207385162105	0.37936119388855716	-0.4240738713605909	0.1792364660872911	0.34328766922274784	-0.2936750560800369	0.33937815514674335	0.5075878464659002	-0.11716590991059347	0.40826026641036095	0.6215581899277889	0.1103074033767135	0.39524465464526526	0.5092547041251104	0.33828977585980835	0.342550995107679	0.5221265241295067	0.4276574377818871	0.3569959175760308	0.5697877361321138	0.47157950366354695	0.3732979703303856	0.6140595209186176	0.48235334708288125	0.02936992520519057	0.5017654171299082	-0.1282184167769453	0.0021129625045587424	0.550130916358956	0.14197895397887778	0.06484310110218323	0.48861083241113795	0.35337277801927863	0.1286528898973844	0.5408957929232067	0.44602532419515895	0.09564058844876525	0.5143710151595429	0.4654553959790328	0.049535614165682904	0.5642810954328483	0.470639036699543
191	3.183333333333333	0.31148855799350894	0.6228071534386883	0.2860324154040102	0.3249050246975081	0.7926820939012723	0.7233756759647505	0.31453031284596594	0.8930479557202682	1.106834068470205	0.2650140413310732	0.7002903463428001	1.166899648671669	0.33680507455751874	0.710650682829188	1.1590902246821446	0.2861694436360879	0.9949953108191925	1.1592763699841604	0.09268571305333669	0.6494438910379038	0.2933376009442863	0.11305816175982554	0.7687216513009215	0.6939888990388242	0.11086499255341496	0.8946780977866908	1.08682423255665	0.10537194243586445	0.7129485040575404	1.154753047092497	0.05449365394222509	0.7600479869067371	1.162906204059166	0.13089509731187216	0.9879589395657389	1.1504053797986236	0.19808216902482997	0.4919712199490865	-0.19950147737412893	0.21125469558765694	0.37935150975353044	-0.4241804979660468	0.17903394596680103	0.34209777171606126	-0.29698962018400316	0.3434313267794728	0.5087745810476766	-0.11738487116985719	0.4083051021360631	0.6215121075507097	0.11028235030141166	0.40022000011352277	0.508950332157564	0.3348594416972485	0.34437047089485856	0.5260957233286303	0.43568753695629997	0.3576219006117216	0.5694350529258176	0.4693432978670017	0.377259561845403	0.614804514234067	0.48244743725074	0.03285287958469054	0.5134818950263995	-0.12895986863795528	0.0016183097458396067	0.5508378395091605	0.14547304769750158	0.061047268162353445	0.5014928021721793	0.3547837016036358	0.11676325203160208	0.5398546264665306	0.4461324543107076	0.0922663189780373	0.5021970226448116	0.46364855264635374	0.049536078334609136	0.5634837534184253	0.47044500669927725
192	3.2	0.31160074872234084	0.6224775198015133	0.2859940665560271	0.3200920642978652	0.7921433479021072	0.7282499275681319	0.309929341565945	0.8921201159926969	1.106667267131366	0.26956434146560193	0.7145777070117766	1.1714383635179142	0.3333202403292625	0.727018303197091	1.1614551049839013	0.2902560846388497	1.0123018262006374	1.1696325926586504	0.08916120384540854	0.6358820963345787	0.29213125489321934	0.1132769792748053	0.7684406451369494	0.6941003780018482	0.11088218657535732	0.8947624688820216	1.0870054118574088	0.10528849881696069	0.71321602847428	1.1544524185878102	0.055768961829434006	0.7581909628017857	1.1583230204296249	0.13156537600944748	0.987584930016957	1.154696221119001	0.1981214212396367	0.4919713631566954	-0.19967869734874352	0.21500932658690752	0.3907751981819048	-0.42917020029037234	0.178710686288052	0.34086002895430967	-0.300284577841957	0.3439625896308298	0.5192654655425248	-0.11782313531415148	0.4072001396824118	0.6198702877836947	0.1106170970632057	0.39868993940129405	0.508326700746143	0.33774467399211217	0.3363708801544034	0.538954435918387	0.4405943293435389	0.3570392484035471	0.5706715451005662	0.4719920116457797	0.3768861187958911	0.614243344623651	0.4770362146133678	0.03325366222712274	0.51368907220538	-0.12915137846033872	0.0015483451935861656	0.5508298622366417	0.14532372545174194	0.06129655247969997	0.5015127491655159	0.351644423809534	0.1167046073721553	0.5411802409964196	0.4464987666296643	0.08982611869882794	0.5020376324609964	0.46003599076754614	0.04568954236571368	0.5769688987367508	0.46701582592490676
193	3.216666666666667	0.31160244625599354	0.6220974869751273	0.2859798804398236	0.32356675833235626	0.7754442457111548	0.7247245786314164	0.3099041789355031	0.8922686280165782	1.106643584722462	0.2696500451894361	0.7153604128256557	1.1718719473277215	0.3336579632547609	0.728302293057101	1.1617513314368677	0.29123471773733633	1.010994758991094	1.1640064468037006	0.09311158440511824	0.6207935322517646	0.2908255389613189	0.11353153066112857	0.768201816542272	0.6940153669983327	0.11091661305124192	0.8947408027886121	1.0869224227660186	0.10236095955817028	0.7323213347643932	1.1654872385575308	0.05561232955742492	0.7583557707515638	1.1584964743298458	0.13172088012906857	0.9874860163141231	1.1544314871881933	0.20208918046588087	0.4934925194764745	-0.19981317157688022	0.21502298112053198	0.3908716297897964	-0.4291908169386533	0.178716574106522	0.340877497941566	-0.30025499183154886	0.34854877008900764	0.5220370541771026	-0.11439854401002877	0.4078960903323463	0.6216094868036952	0.11424760074862139	0.39958337151741075	0.5105191784156422	0.3418295818594119	0.34060437910344055	0.5512898093496283	0.44261867305598956	0.36168363926888947	0.58314044762943	0.47146414213332505	0.381671712081983	0.6162933083959433	0.4817757427696803	0.033266545295395675	0.5139132924208689	-0.12915781860316392	0.005092034309485652	0.5518573341219583	0.14523639194320756	0.061304952071594455	0.5010011728575914	0.3516382962766015	0.11257631050830817	0.5392924765355203	0.44636546230886015	0.09153955119998036	0.5154004311552113	0.46832668426341484	0.04029184367386005	0.5779969917226291	0.47047017168341854
